
<svg xmlns="http://www.w3.org/2000/svg" style="display: none;">
<symbol id="icon-about" viewBox="0 0 20 20">
<path fill="currentColor" d="M10 9.25c-2.27 0-2.73-3.44-2.73-3.44C7 4.02 7.82 2 9.97 2c2.16 0 2.98 2.02 2.71 3.81c0 0-.41 3.44-2.68 3.44m0 2.57L12.72 10c2.39 0 4.52 2.33 4.52 4.53v2.49s-3.65 1.13-7.24 1.13c-3.65 0-7.24-1.13-7.24-1.13v-2.49c0-2.25 1.94-4.48 4.47-4.48z"/>
</symbol>
<symbol id="icon-contact" viewBox="0 0 20 20">
<path fill="currentColor" d="M19 14.5v-9c0-.83-.67-1.5-1.5-1.5H3.49c-.83 0-1.5.67-1.5 1.5v9c0 .83.67 1.5 1.5 1.5H17.5c.83 0 1.5-.67 1.5-1.5m-1.31-9.11c.33.33.15.67-.03.84L13.6 9.95l3.9 4.06c.12.14.2.36.06.51c-.13.16-.43.15-.56.05l-4.37-3.73l-2.14 1.95l-2.13-1.95l-4.37 3.73c-.13.1-.43.11-.56-.05c-.14-.15-.06-.37.06-.51l3.9-4.06l-4.06-3.72c-.18-.17-.36-.51-.03-.84s.67-.17.95.07l6.24 5.04l6.25-5.04c.28-.24.62-.4.95-.07"/>
</symbol>
<symbol id="icon-git" viewBox="0 0 20 20">
<path fill="currentColor" d="M13.18 11.309c-.718 0-1.3.807-1.3 1.799c0 .994.582 1.801 1.3 1.801s1.3-.807 1.3-1.801c-.001-.992-.582-1.799-1.3-1.799m4.526-4.683c.149-.365.155-2.439-.635-4.426c0 0-1.811.199-4.551 2.08c-.575-.16-1.548-.238-2.519-.238c-.973 0-1.945.078-2.52.238C4.74 2.399 2.929 2.2 2.929 2.2c-.789 1.987-.781 4.061-.634 4.426C1.367 7.634.8 8.845.8 10.497c0 7.186 5.963 7.301 7.467 7.301l1.734.002l1.732-.002c1.506 0 7.467-.115 7.467-7.301c0-1.652-.566-2.863-1.494-3.871m-7.678 10.289h-.056c-3.771 0-6.709-.449-6.709-4.115c0-.879.31-1.693 1.047-2.369C5.537 9.304 7.615 9.9 9.972 9.9h.056c2.357 0 4.436-.596 5.664.531c.735.676 1.045 1.49 1.045 2.369c0 3.666-2.937 4.115-6.709 4.115m-3.207-5.606c-.718 0-1.3.807-1.3 1.799c0 .994.582 1.801 1.3 1.801s1.301-.807 1.301-1.801c0-.992-.582-1.799-1.301-1.799"/>
</symbol>
<symbol id="icon-home" viewBox="0 0 20 20">
<path fill="currentColor" d="m16 8.5l1.53 1.53l-1.06 1.06L10 4.62l-6.47 6.47l-1.06-1.06L10 2.5l4 4v-2h2zm-6-2.46l6 5.99V18H4v-5.97zM12 17v-5H8v5z"/>
</symbol>
<symbol id="icon-instagram" viewBox="0 0 20 20">
<path fill="currentColor" d="M17 1H3c-1.1 0-2 .9-2 2v14c0 1.101.9 2 2 2h14c1.1 0 2-.899 2-2V3c0-1.1-.9-2-2-2M9.984 15.523a5.54 5.54 0 0 0 5.538-5.539c0-.338-.043-.664-.103-.984H17v7.216a.69.69 0 0 1-.693.69H3.693a.69.69 0 0 1-.693-.69V9h1.549c-.061.32-.104.646-.104.984a5.54 5.54 0 0 0 5.539 5.539M6.523 9.984a3.461 3.461 0 1 1 6.922 0a3.461 3.461 0 0 1-6.922 0M16.307 6h-1.615A.694.694 0 0 1 14 5.308V3.691c0-.382.31-.691.691-.691h1.615c.384 0 .694.309.694.691v1.616c0 .381-.31.693-.693.693"/>
</symbol>
<symbol id="icon-linkedin" viewBox="0 0 20 20">
<path fill="currentColor" d="M5 3c0 1.062-.71 1.976-2.001 1.976C1.784 4.976 1 4.114 1 3.052C1 1.962 1.76 1 3 1s1.976.91 2 2M1 19V6h4v13zm6-8.556c0-1.545-.051-2.836-.102-3.951h3.594l.178 1.723h.076c.506-.811 1.746-2 3.822-2C17.1 6.216 19 7.911 19 11.558V19h-4v-6.861c0-1.594-.607-2.81-2-2.81c-1.062 0-1.594.86-1.873 1.569c-.102.254-.127.608-.127.963V19H7z"/>
</symbol>
<symbol id="icon-skills" viewBox="0 0 20 20">
<path fill="currentColor" d="M18 12h-2.18c-.17.7-.44 1.35-.81 1.93l1.54 1.54l-2.1 2.1l-1.54-1.54c-.58.36-1.23.63-1.91.79V19H8v-2.18c-.68-.16-1.33-.43-1.91-.79l-1.54 1.54l-2.12-2.12l1.54-1.54c-.36-.58-.63-1.23-.79-1.91H1V9.03h2.17c.16-.7.44-1.35.8-1.94L2.43 5.55l2.1-2.1l1.54 1.54c.58-.37 1.24-.64 1.93-.81V2h3v2.18c.68.16 1.33.43 1.91.79l1.54-1.54l2.12 2.12l-1.54 1.54c.36.59.64 1.24.8 1.94H18zm-8.5 1.5c1.66 0 3-1.34 3-3s-1.34-3-3-3s-3 1.34-3 3s1.34 3 3 3"/>
</symbol>
<symbol id="icon-work" viewBox="0 0 20 20">
<path fill="currentColor" d="M10 6c3.9 0 7-.9 7-2s-3.1-2-7-2s-7 .9-7 2s3.1 2 7 2m0 9c-3.9 0-7-.9-7-2v3c0 1.1 3.1 2 7 2s7-.9 7-2v-3c0 1.1-3.1 2-7 2m0-4c-3.9 0-7-.9-7-2v3c0 1.1 3.1 2 7 2s7-.9 7-2V9c0 1.1-3.1 2-7 2m0-4c-3.9 0-7-.9-7-2v3c0 1.1 3.1 2 7 2s7-.9 7-2V5c0 1.1-3.1 2-7 2"/>
</symbol>
</svg>